<?xml version="1.0" encoding="UTF-8"?>
<!-- Created with Inkscape (http://www.inkscape.org/) -->
<svg width="400" height="153.48" version="1.1" viewBox="0 0 105.83 40.609" xmlns="http://www.w3.org/2000/svg" xmlns:cc="http://creativecommons.org/ns#" xmlns:dc="http://purl.org/dc/elements/1.1/" xmlns:rdf="http://www.w3.org/1999/02/22-rdf-syntax-ns#">
 <metadata>
  <rdf:RDF>
   <cc:Work rdf:about="">
    <dc:format>image/svg+xml</dc:format>
    <dc:type rdf:resource="http://purl.org/dc/dcmitype/StillImage"/>
    <dc:title/>
   </cc:Work>
  </rdf:RDF>
 </metadata>
 <g transform="translate(-92.649 -113.91)">
  <g transform="matrix(1.5345 0 0 -1.5345 7.6575 604.35)">
   <g transform="translate(286.31 186.38)">
    <path d="m-199.93 110.68c0.106 0.449 0.443 0.705 0.855 0.705s0.756-0.243 0.893-0.705zm1.798-0.862c-0.225-0.299-0.525-0.468-0.873-0.468-0.457 0-0.887 0.331-0.925 0.793h2.509v0.118c0 1.18-0.936 1.698-1.567 1.698-1.054 0-1.666-0.793-1.666-1.591 0-0.799 0.612-1.592 1.666-1.592 0.543 7e-3 1.043 0.281 1.405 0.737zm5.252 0.55c0 0.543 0.412 0.98 0.98 0.98 0.567 0 0.98-0.437 0.98-0.98s-0.413-0.981-0.98-0.981c-0.568 0-0.98 0.438-0.98 0.981m-0.687 0c0-0.799 0.612-1.592 1.667-1.592 1.054 0 1.665 0.793 1.665 1.592 0 0.798-0.611 1.591-1.665 1.591-1.055 0-1.667-0.793-1.667-1.591m4.393 0c0 0.543 0.412 0.98 0.981 0.98 0.568 0 0.979-0.437 0.979-0.98s-0.411-0.981-0.979-0.981c-0.569 0-0.981 0.438-0.981 0.981m-0.685 0c0-0.799 0.61-1.592 1.666-1.592 1.054 0 1.666 0.793 1.666 1.592 0 0.798-0.612 1.591-1.666 1.591-1.056 0-1.666-0.793-1.666-1.591m11.438 0.043c0 0.518 0.405 0.937 0.91 0.937 0.494 0 0.9-0.419 0.9-0.943 0-0.517-0.375-0.936-0.9-0.936-0.548 0-0.91 0.419-0.91 0.942m2.421 1.467h-0.611v-0.356c-0.225 0.281-0.55 0.437-0.956 0.437-0.804 0-1.541-0.568-1.541-1.561 0-0.955 0.687-1.541 1.467-1.541 0.443 0 0.755 0.162 1.03 0.469v-0.201c0-0.461-0.338-0.892-0.999-0.892-0.306 0-0.587 0.2-0.712 0.375l-0.53-0.387c0.343-0.425 0.854-0.599 1.273-0.599 0.818 0 1.579 0.574 1.579 1.572zm-29.816-1.719v2.518l0.649 0.181v-0.98h0.596v-0.612h-0.596v-0.929c0-0.816 0.637-1.017 0.637-1.017l-0.305-0.544c-0.669 0.319-0.981 0.753-0.981 1.383m32.954 0.209c0 0.543 0.413 0.98 0.981 0.98s0.979-0.437 0.979-0.98-0.411-0.981-0.979-0.981-0.981 0.438-0.981 0.981m-0.686 0c0-0.799 0.612-1.592 1.667-1.592 1.054 0 1.667 0.793 1.667 1.592 0 0.798-0.613 1.591-1.667 1.591-1.055 0-1.667-0.793-1.667-1.591m-10.439 2.128c0-0.2 0.162-0.362 0.361-0.362 0.2 0 0.362 0.162 0.362 0.362 0 0.199-0.162 0.362-0.362 0.362-0.199 0-0.361-0.163-0.361-0.362m0.037-3.639h0.649v3.021h-0.649zm20.45 1.511c0-0.543-0.437-0.981-0.961-0.981-0.512 0-0.949 0.438-0.949 0.981s0.437 0.98 0.949 0.98c0.524 0 0.961-0.437 0.961-0.98m-1.885 1.51h-0.649v-4.063h0.649v1.411c0.181-0.256 0.524-0.45 0.973-0.45 0.981 0 1.598 0.849 1.598 1.592 0 0.779-0.574 1.591-1.567 1.591-0.411 0-0.761-0.162-0.992-0.449zm-38.552-3.021h0.65v1.691c0 0.493 0.324 0.762 0.743 0.762 0.43 0 0.717-0.224 0.717-0.774v-1.679h0.649v1.823c0 0.749-0.537 1.279-1.172 1.279-0.412 0-0.744-0.181-0.925-0.462l-0.012 1.279h-0.65zm7.176 2e-3h0.649v2.142h0.65v0.612h-0.65v0.19c0 0.225 0.156 0.443 0.419 0.443 0.118 0 0.199-0.018 0.286-0.056l0.27 0.586c-0.138 0.057-0.344 0.082-0.5 0.082-0.78 0-1.124-0.531-1.124-1.092zm1.81 3.917v-2.617c0-0.63 0.312-1.064 0.98-1.383l0.306 0.544s-0.637 0.201-0.637 1.017v2.439zm9.023-3.919h0.649v1.997c0 0.275 0.212 0.456 0.449 0.456 0.063 0 0.181-0.037 0.243-0.087l0.231 0.642c-0.087 0.056-0.212 0.094-0.355 0.094-0.263 0-0.487-0.162-0.593-0.412l-0.012 0.331h-0.612zm3.463 0h0.649v1.691c0 0.493 0.324 0.762 0.743 0.762 0.43 0 0.717-0.224 0.717-0.774v-1.679h0.649v1.823c0 0.749-0.537 1.279-1.173 1.279-0.412 0-0.743-0.181-0.924-0.462l-0.012 0.381h-0.649zm7.289 0h0.648v1.997c0 0.275 0.213 0.456 0.45 0.456 0.062 0 0.181-0.037 0.243-0.087l0.231 0.642c-0.086 0.056-0.212 0.094-0.356 0.094-0.262 0-0.486-0.162-0.592-0.412l-0.012 0.331h-0.612zm5.559 1.274c0-0.849 0.662-1.355 1.38-1.355s1.379 0.506 1.379 1.355v1.747h-0.649v-1.691c0-0.444-0.325-0.761-0.73-0.761s-0.73 0.317-0.73 0.761v1.691h-0.65z" fill="#202d5e" fill-rule="evenodd"/>
   </g>
   <g transform="translate(310.7 193.61)">
    <path d="m-199.93 110.68c0.64 0 1.147 0.507 1.147 1.144s-0.507 1.143-1.147 1.143-1.147-0.506-1.147-1.143 0.507-1.144 1.147-1.144m0 2.101c0.524 0 0.961-0.416 0.961-0.957 0-0.538-0.437-0.958-0.961-0.958-0.523 0-0.96 0.42-0.96 0.958 0 0.541 0.437 0.957 0.96 0.957m0.198-1.015c0.172 5e-3 0.344 0.099 0.344 0.351 0 0.272-0.209 0.342-0.443 0.342h-0.542v-1.287h0.188v0.594h0.238l0.329-0.594h0.212zm-0.135 0.506c0.156 0 0.292-0.011 0.292-0.175 0-0.174-0.239-0.146-0.413-0.146h-0.197v0.321z" fill="#202d5e" fill-rule="evenodd"/>
   </g>
   <g transform="translate(300.5 201.21)">
    <path d="m-199.93 110.68c1.525-3e-3 2.627-1.17 2.629-2.63-2e-3 -1.461-1.104-2.627-2.629-2.629-1.525 2e-3 -2.626 1.168-2.63 2.629 4e-3 1.46 1.105 2.627 2.63 2.63m0-7.573c3.261 1e-3 5.161 2.46 5.162 4.943-1e-3 2.484-1.901 4.941-5.162 4.943-3.26-2e-3 -5.161-2.459-5.162-4.943 1e-3 -2.483 1.902-4.942 5.162-4.943m-37.063-0.012c2.249 1e-3 3.856 0.785 5.475 1.861l0.051 0.035c0.1 0.086 0.181 0.205 0.186 0.385v5.627c-1e-3 0.021-5e-3 0.041-8e-3 0.048-0.054 0.208-0.245 0.365-0.472 0.365h-5.384v-1.979c0-0.181 0.192-0.375 0.384-0.375h2.986v-2.544l-0.026-0.02c-0.712-0.514-1.899-0.98-3.136-0.981-2.419 5e-3 -4.744 1.896-4.744 4.799 0 2.901 2.325 4.794 4.744 4.799 1.407 0 2.389-0.449 3.426-1.273 0.116-0.091 0.231-0.125 0.342-0.125 0.18-1e-3 0.35 0.094 0.444 0.185l1.241 1.341-0.026 0.027c-1.611 1.637-3.404 2.265-5.483 2.266-3.87-1e-3 -7.257-2.92-7.257-7.22 0-4.302 3.387-7.22 7.257-7.221m31.372-1.295 1.043 0.812-0.015 0.019c-0.854 1.003-1.323 2.374-1.323 3.862v10.011c0 0.24-0.196 0.438-0.451 0.439l-1.975-2e-3v-10.106c1e-3 -2.36 0.33-3.254 1.239-4.944l0.05-0.091h-37.185v-2.4751h55.598v2.4751zm12.058 1.329h1.973v6.384c1e-3 0.595 0.39 1.103 0.975 1.103 0.236 0 0.42-0.033 0.582-0.087 0.045-0.015 0.096-0.026 0.152-0.026 0.185-2e-3 0.361 0.143 0.433 0.29l0.808 1.84-0.239 0.102c-0.447 0.19-1.098 0.269-1.57 0.269-0.447 3e-3 -0.952-0.098-1.11-0.382l-0.095-0.163-0.021 0.187c-0.025 0.237-0.252 0.371-0.463 0.372h-1.891v-9.392c-1e-3 0-1e-3 -0.01-1e-3 -0.022 0-0.023 1e-3 -0.051 2e-3 -0.059 0.026-0.232 0.22-0.416 0.465-0.416m-34.278 6.186c0.37 0.955 1.185 1.481 2.146 1.479 0.961 2e-3 1.793-0.497 2.229-1.476l0.039-0.088h-4.448zm2.404-6.202c1.687 0.019 3.228 0.873 4.334 2.264l0.098 0.125-2.08 1.144-0.041-0.056c-0.619-0.827-1.433-1.275-2.368-1.274-1.111 0-2.135 0.722-2.404 1.743l-0.019 0.078h6.879c0.261 0 0.456 0.213 0.467 0.468v0.137c-4e-3 3.647-2.903 5.254-4.868 5.255-3.26 0-5.161-2.459-5.162-4.943 1e-3 -2.483 1.903-4.94 5.164-4.941m11.813 0.016h1.918v7.39h1.793c0.211 0 0.357 0.209 0.357 0.386l-1e-3 1.936h-2.149v1.188c2e-3 0.572 0.325 1.148 1.082 1.149 0.149 0 0.315-0.023 0.49-0.07 0.05-7e-3 0.096-0.011 0.141-0.011 0.24 1e-3 0.4 0.107 0.468 0.261 0.067 0.154 0.6 1.393 0.716 1.663-0.076 0.041-0.226 0.121-0.359 0.169-0.401 0.146-0.969 0.259-1.576 0.259-1.571-9e-3 -3.379-0.73-3.385-3.574v-10.281c4e-3 -0.25 0.209-0.446 0.505-0.465m-5.84 0h1.974v6.384c1e-3 0.595 0.389 1.103 0.975 1.103 0.235 0 0.42-0.033 0.581-0.087 0.047-0.015 0.096-0.026 0.153-0.026 0.183-2e-3 0.36 0.144 0.431 0.29l0.809 1.84-0.238 0.102c-0.446 0.19-1.098 0.269-1.571 0.269-0.447 3e-3 -0.951-0.098-1.109-0.382l-0.096-0.165-0.021 0.189c-0.024 0.237-0.253 0.371-0.463 0.372h-1.891v-9.411c0-0.024 0-0.055 2e-3 -0.062 0.026-0.232 0.22-0.416 0.464-0.416" fill="#202d5e" fill-rule="evenodd"/>
   </g>
  </g>
 </g>
</svg>
